<svg aria-hidden="true" style="position: absolute; width: 0; height: 0; overflow: hidden;" version="1.1" xmlns="http://www.w3.org/2000/svg" xmlns:xlink="http://www.w3.org/1999/xlink">
<defs>
<symbol id="icon-airplane" viewBox="0 0 20 20">
<title>airplane</title>
<path d="M8.4 12h-5.6l-1.8 3h-1v-10h1l1.8 3h5.6l-2.4-8h2l4.8 8h5.2c1.105 0 2 0.895 2 2s-0.895 2-2 2v0h-5.2l-4.8 8h-2l2.4-8z"></path>
</symbol>
<symbol id="icon-coffee" viewBox="0 0 20 20">
<title>coffee</title>
<path d="M4 11h-2c-1.105 0-2-0.895-2-2v0-4c0-1.1 0.9-2 2-2h2v-2h14v10c0 2.209-1.791 4-4 4v0h-6c-2.209 0-4-1.791-4-4v0zM4 9v-4h-2v4h2zM2 17v-1h18v1l-4 2h-10l-4-2z"></path>
</symbol>
<symbol id="icon-lock-closed" viewBox="0 0 20 20">
<title>lock-closed</title>
<path d="M4 8v-2c0-3.314 2.686-6 6-6s6 2.686 6 6v0 2h1c1.105 0 2 0.895 2 2v0 8c0 1.105-0.895 2-2 2v0h-14c-1.105 0-2-0.895-2-2v0-8c0-1.1 0.9-2 2-2h1zM9 14.73v2.27h2v-2.27c0.602-0.352 1-0.996 1-1.732 0-1.105-0.895-2-2-2s-2 0.895-2 2c0 0.736 0.398 1.38 0.991 1.727l0.009 0.005zM7 6v2h6v-2c0-1.657-1.343-3-3-3s-3 1.343-3 3v0z"></path>
</symbol>
<symbol id="icon-translate" viewBox="0 0 20 20">
<title>translate</title>
<path d="M7.41 9l2.24 2.24-0.83 2-2.82-2.84-3.3 3.3-1.4-1.42 3.28-3.28-0.88-0.88c-0.53-0.53-1-1.3-1.3-2.12h2.2c0.15 0.28 0.33 0.53 0.51 0.7l0.89 0.9 0.88-0.88c0.6-0.62 1.12-1.88 1.12-2.72h-8v-2h5v-2h2v2h5v2h-2c0 1.37-0.74 3.15-1.7 4.12l-0.9 0.88zM11.25 17l-1.25 3h-2l5-12h2l5 12h-2l-1.25-3h-5.5zM12.080 15h3.84l-1.92-4.6-1.92 4.6z"></path>
</symbol>
<symbol id="icon-travel-taxi-cab" viewBox="0 0 20 20">
<title>travel-taxi-cab</title>
<path d="M12 3h2l4 7h1c0.552 0 1 0.448 1 1v0c0 0.552-0.448 1-1 1v0h-1v6c0 0.552-0.448 1-1 1v0h-1c-0.552 0-1-0.448-1-1v0-1h-10v1c0 0.552-0.448 1-1 1v0h-1c-0.552 0-1-0.448-1-1v0-6h-1c-0.552 0-1-0.448-1-1v0c0-0.552 0.448-1 1-1v0h1l4-7h2v-2h4v2zM15.86 10l-2.86-5h-6l-2.86 5h11.72zM5.5 15c0.828 0 1.5-0.672 1.5-1.5s-0.672-1.5-1.5-1.5v0c-0.828 0-1.5 0.672-1.5 1.5s0.672 1.5 1.5 1.5v0zM14.5 15c0.828 0 1.5-0.672 1.5-1.5s-0.672-1.5-1.5-1.5v0c-0.828 0-1.5 0.672-1.5 1.5s0.672 1.5 1.5 1.5v0z"></path>
</symbol>
</defs>
</svg>
